<svg enable-background="new 0 0 960 560" version="1.1" viewBox="0 0 536.28925 560.71813" xmlns="http://www.w3.org/2000/svg">
 <g transform="rotate(-90,280.35908,280.35909)">
  <g id="Rounded_Rectangle_33_copy_4_1_" transform="translate(-199.9995,-119.99437)">
   <path fill="#ffffff" d="m480 344.181-211.131-212.292c-15.756-15.859-41.3-15.859-57.054 0-15.754 15.857-15.754 41.57 0 57.431l237.632 238.937c8.395 8.451 19.562 12.254 30.553 11.698 10.993 0.556 22.159-3.247 30.555-11.698l237.631-238.937c15.756-15.86 15.756-41.571 0-57.431s-41.299-15.859-57.051 0z"/>
  </g>
  <g transform="translate(-199.28483,96.28114)">
   <path fill="#ffffff" d="m480 344.181-211.131-212.292c-15.756-15.859-41.3-15.859-57.054 0-15.754 15.857-15.754 41.57 0 57.431l237.632 238.937c8.395 8.451 19.562 12.254 30.553 11.698 10.993 0.556 22.159-3.247 30.555-11.698l237.631-238.937c15.756-15.86 15.756-41.571 0-57.431s-41.299-15.859-57.051 0z"/>
  </g>
 </g>
</svg>
